# xmcd
#
# Track frame offsets:
#	150
#	11630
#	22615
#	32746
#	46773
#	57187
#	69323
#	81395
#	95452
#	105712
#	117731
#	130205
#	142198
#	154413
#	172125
#	185947
#	194553
#	205029
#	215676
#	226021
#
# Disc length: 3176 seconds
#
# Revision: 0
# Processed by: cddbd v1.5.2PL0 Copyright (c) Steve Scherf et al.
# Submitted via: audiograbber 1.83.01
#
DISCID=240c6614
DTITLE=Orquesta Casino La Habana - Música del Mundo
DYEAR=2005
DGENRE=Instrumental
TTITLE0=Para Elisa
TTITLE1=Polvo de estrellas
TTITLE2=Podria haber bailado toda la noche
TTITLE3=Noche y dia
TTITLE4=Ojos negros
TTITLE5=No puedo dejar de amarte
TTITLE6=Arrivederci Roma
TTITLE7=Babalu
TTITLE8=Concion India
TTITLE9=Mambo No. 5
TTITLE10=Luna lunera
TTITLE11=Andalucia
TTITLE12=Formas en  bossa nova
TTITLE13=La malagena
TTITLE14=Cerezo rosa
TTITLE15=Cumbanchero
TTITLE16=Tequila
TTITLE17=Tema de brahms
TTITLE18=Esta noche
TTITLE19=Cao, cao mani picao
EXTD=Fantasía Instrumental\n
EXTT0=
EXTT1=
EXTT2=
EXTT3=
EXTT4=
EXTT5=
EXTT6=
EXTT7=
EXTT8=
EXTT9=
EXTT10=
EXTT11=
EXTT12=
EXTT13=
EXTT14=
EXTT15=
EXTT16=
EXTT17=
EXTT18=
EXTT19=
PLAYORDER=
